<?xml version="1.0" encoding="utf-8"?>
<!-- Generator: Adobe Illustrator 27.5.0, SVG Export Plug-In . SVG Version: 6.00 Build 0)  -->
<svg version="1.1" id="Background" xmlns="http://www.w3.org/2000/svg" xmlns:xlink="http://www.w3.org/1999/xlink" x="0px" y="0px"
	 viewBox="0 0 1200 800" style="enable-background:new 0 0 1200 800;" xml:space="preserve">
<g>
	<defs>
		<rect id="SVGID_1_" width="1200" height="800"/>
	</defs>
	<clipPath id="SVGID_00000021091759536046575700000001491024283203951771_">
		<use xlink:href="#SVGID_1_"  style="overflow:visible;"/>
	</clipPath>
	<g style="clip-path:url(#SVGID_00000021091759536046575700000001491024283203951771_);">
		<rect x="-1.5" y="-1" style="fill:#FFFEF8;" width="1203" height="802"/>
		<path style="opacity:0.9;fill:#FDECC8;" d="M665.568,801c-5.42-7.5-8.978-15.788-9.939-25.101
			c-2.685-26.006-20.305-80.855,8.983-101.601c16.659-11.8,43.067-13.798,67.125-14.011c16.23-0.144,32.469,0.198,48.708,0.75
			c55.212,1.879,110.423,6.195,165.29,2.155c87.746-6.461,169.363-33.874,255.766-45.628V801H665.568z"/>
		<path style="opacity:0.95;fill:#E1D5C5;" d="M-1.5,534.148c49.076,0.941,100.482,2.025,138.96,22.041
			c16.318,8.489,28.934,19.813,44.265,29.114c2.309,1.401,4.658,2.747,7.045,4.041c68.771,37.269,173.674,33.436,256.538,34.879
			c96.063,1.673,177.072,19.262,239.446,72.818c35.292,30.303,58.094,66.183,70.932,103.959H-1.5V534.148z"/>
		<g style="opacity:0.5;">
			<g>
				<path style="fill:#EBD8CC;" d="M-1.973,502.104c73.098,11.27,146.883,20.686,220.979,20.172
					c35.628-0.247,71.259-2.894,106.399-8.872c34.083-5.798,67.601-14.382,101.462-21.285
					c34.106-6.953,68.799-12.161,103.703-10.925c33.793,1.196,67.051,8.748,97.785,22.918
					c52.648,24.274,96.313,65.278,129.813,112.085c17.877,24.979,33.296,51.985,44.482,80.631
					c10.357,26.522,17.356,54.941,16.651,83.569c-0.166,6.749-0.794,13.47-1.903,20.13c0.572-0.436,1.144-0.871,1.716-1.307
					c-7.366,0-14.733,0-22.099,0c-19.867,0-39.734,0-59.601,0c-29.455,0-58.909,0-88.364,0c-35.936,0-71.872,0-107.807,0
					c-39.222,0-78.445,0-117.667,0c-39.861,0-79.722,0-119.583,0c-36.913,0-73.827,0-110.74,0c-31.306,0-62.612,0-93.917,0
					c-22.508,0-45.015,0-67.523,0c-6.98,0-13.961,0-20.941,0c-3.573,0-7.419-0.404-10.974,0c-0.452,0.052-0.938,0-1.395,0
					c0.593,0.593,1.187,1.186,1.78,1.78c0-9.988,0-19.976,0-29.964c0-23.847,0-47.695,0-71.542c0-28.986,0-57.972,0-86.958
					c0-25.061,0-50.121,0-75.182c0-8.224,0-16.447,0-24.671c0-3.809,0.478-7.973,0-11.761c-0.022-0.172,0-0.361,0-0.535
					c0-2.29-3.56-2.294-3.56,0c0,9.988,0,19.976,0,29.964c0,23.847,0,47.695,0,71.542c0,28.986,0,57.972,0,86.958
					c0,25.061,0,50.121,0,75.182c0,8.223,0,16.447,0,24.67c0,3.809-0.478,7.973,0,11.761c0.022,0.172,0,0.361,0,0.535
					c0,0.962,0.816,1.78,1.78,1.78c7.366,0,14.733,0,22.099,0c19.867,0,39.734,0,59.601,0c29.455,0,58.909,0,88.364,0
					c35.936,0,71.872,0,107.807,0c39.223,0,78.445,0,117.667,0c39.861,0,79.722,0,119.583,0c36.913,0,73.827,0,110.74,0
					c31.306,0,62.612,0,93.917,0c22.508,0,45.015,0,67.523,0c10.634,0,21.283,0.164,31.916,0c0.465-0.007,0.93,0,1.395,0
					c0.713,0,1.59-0.548,1.716-1.307c9.575-57.521-14.796-116.668-44.611-164.649c-30.26-48.697-70.69-92.497-120.138-122.081
					c-27.183-16.263-57.126-27.861-88.369-33.292c-34.264-5.956-69.15-4.588-103.438,0.41
					c-34.935,5.092-69.209,13.721-103.702,21.082c-35.629,7.604-71.471,12.915-107.877,14.802
					c-75.372,3.906-150.878-4.024-225.387-14.826c-9.451-1.37-18.894-2.793-28.333-4.248
					C-3.268,498.326-4.234,501.755-1.973,502.104z"/>
			</g>
		</g>
		<rect x="-1.5" y="-1" style="fill:none;" width="1203" height="802"/>
	</g>
</g>
</svg>
