<svg version="1.2" xmlns="http://www.w3.org/2000/svg" viewBox="0 0 512 512" width="512" height="512">
	<title>corazon-svg</title>
	<style>
		.s0 { fill: #000000 } 
	</style>
	<g id="Layer" style="opacity: .4">
		<g id="Layer">
			<g id="Layer">
				<path id="Layer" fill-rule="evenodd" class="s0" d="m512 195.6c0 51-28.3 103.9-84.2 157.3-44.6 42.7-97.1 76.4-133.2 97.2-1.7 0.9-3.5 1.4-5.2 1.4-3.4 0-6.8-1.7-8.8-4.7l-30.2-45.7c-2.3-3.5-2.3-8 0-11.5l34.2-51.6c2.3-3.5 2.3-8.1 0-11.6l-34.2-51.5c-2.3-3.5-2.3-8.1 0-11.6l34.2-51.6c2.3-3.5 2.3-8 0-11.5l-34.2-51.6c-2.3-3.5-2.3-8 0-11.5l34.2-51.6q0.4-0.7 0.8-1.6c0.6-1.4 1.5-2.6 2.6-3.6 24.4-21.9 55.3-34 87-34 75.6 0 137 67 137 149.3zm-20.9 0c0-70.8-52.1-128.4-116.1-128.4-25.9 0-51.2 9.7-71.5 27.3q-0.7 1.3-1.5 2.5l-30.3 45.8 30.3 45.8c7 10.6 7 24.1 0 34.7l-30.3 45.8 30.3 45.8c6.9 10.5 7 24.1 0 34.6l-30.3 45.8 20.9 31.7c66-38.9 198.5-129.9 198.5-231.4z"/>
				<path id="Layer" fill-rule="evenodd" class="s0" d="m257.4 449.5c2.6 4 2.2 9.2-1 12.8-2 2.2-4.8 3.4-7.7 3.4-1.7 0-3.3-0.4-4.8-1.1-22.9-11.9-81.8-44.5-136.4-90.7-71.3-60.4-107.5-120.4-107.5-178.3 0-82.3 61.4-149.3 137-149.3 40.5 0 78.6 19.4 104.8 53.1 2.7 3.6 2.9 8.5 0.4 12.2l-16.9 25.5c-2.3 3.5-2.3 8 0 11.5l34.2 51.6c2.3 3.5 2.3 8 0 11.5l-34.2 51.6c-2.3 3.5-2.3 8 0 11.6l34.2 51.5c2.3 3.5 2.3 8.1 0 11.6l-34.2 51.6c-2.3 3.5-2.3 8 0 11.5zm-41.1-24.4l-8.3-12.5q0 0 0 0c-7-10.5-7-24 0-34.6l30.3-45.8-30.3-45.8c-7-10.5-7-24.1 0-34.6l30.3-45.8-30.3-45.9c-7-10.5-7-24.1 0-34.6l12.6-19c-21.9-25.1-51.9-39.3-83.6-39.3-64 0-116 57.6-116 128.4 0 51.5 33.6 106.1 100.1 162.4 33.2 28.1 68.2 51.1 95.2 67.1z"/>
			</g>
		</g>
	</g>
</svg>